<svg xmlns="http://www.w3.org/2000/svg" viewBox="0 0 100 100"><defs><style>.cls-1{fill:#fff;stroke:#000;stroke-miterlimit:10;stroke-width:2px;}</style></defs><g id="Layer_6" data-name="Layer 6"><path class="cls-1" d="M67.49,80.38h-35c6-5.22,8.25-12.28,7.81-20.63H59.68C59.05,68.6,61.23,75.74,67.49,80.38Z"/><polygon class="cls-1" points="49.96 72.81 20.02 53.21 49.96 24.12 79.91 53.23 49.96 72.81"/><polygon class="cls-1" points="53.26 9.61 52.3 5.65 47.63 5.65 46.67 9.61 42.71 10.57 42.71 15.23 46.66 16.18 47.62 25.88 52.3 25.88 53.26 16.18 57.22 15.23 57.22 10.57 53.26 9.61"/><polygon class="cls-1" points="42.6 55 11.65 52.84 16.77 35.66 33.95 29.44 42.6 55"/><polygon class="cls-1" points="57.55 55 88.35 52.84 83.23 35.66 66.05 29.44 57.55 55"/><rect class="cls-1" x="43.24" y="47.06" width="13.68" height="13.68" transform="translate(52.78 -19.62) rotate(45)"/><path class="cls-1" d="M21.13,92S23,76.33,49.92,76.33c22.47,0,26.21,10.9,26.83,14.52a1,1,0,0,1-1,1.15Z"/></g></svg>