<svg xmlns="http://www.w3.org/2000/svg" viewBox="0 0 100 100"><defs><style>.cls-1{stroke:#fff;stroke-miterlimit:10;stroke-width:2px;}</style></defs><g id="Layer_6" data-name="Layer 6"><path class="cls-1" d="M67.49,76h-35c6-4.61,8.25-10.84,7.81-18.21H59.68C59.05,65.56,61.23,71.86,67.49,76Z"/><polygon class="cls-1" points="49.96 70.81 20.02 51.21 49.96 22.12 79.91 51.23 49.96 70.81"/><polygon class="cls-1" points="53.26 7.61 52.3 3.65 47.63 3.65 46.67 7.61 42.71 8.57 42.71 13.23 46.66 14.19 47.62 23.88 52.3 23.88 53.26 14.19 57.22 13.23 57.22 8.57 53.26 7.61"/><polygon class="cls-1" points="42.6 53 11.65 50.84 16.77 33.66 33.95 27.44 42.6 53"/><polygon class="cls-1" points="57.55 53 88.35 50.84 83.23 33.66 66.05 27.44 57.55 53"/><rect class="cls-1" x="43.24" y="45.06" width="13.68" height="13.68" transform="translate(51.37 -20.21) rotate(45)"/><path class="cls-1" d="M21.13,90S23,74.33,49.92,74.33,76.87,90,76.87,90Z"/></g></svg>