<svg id="Pawn" xmlns="http://www.w3.org/2000/svg" viewBox="0 0 100 100"><defs><style>.cls-1{stroke:#fff;stroke-miterlimit:10;stroke-width:2px;}</style></defs><path class="cls-1" d="M54,28H45.62c0,5.32-12.84,8.57-19.73,8.57L30,43.33c12.3,5,10,33.75,10,33.75H59.66s-2.31-28.79,10-33.75l4.1-6.77C66.86,36.56,54,33.31,54,28Z"/><path class="cls-1" d="M58.84,33.31l-9.12,10.1-8.85-9.8c-3.55-3.94-.13-14.3-.13-14.3,4.6-8,13.41-8,18,0C58.75,19.31,62.23,29.55,58.84,33.31Z"/><path class="cls-1" d="M25.89,90s1.52-14.56,23.78-14.56S71.92,90,71.92,90Z"/></svg>