<svg id="Pawn" xmlns="http://www.w3.org/2000/svg" viewBox="0 0 100 100"><defs><style>.cls-1{fill:#fff;stroke:#0a0a0a;stroke-miterlimit:10;stroke-width:2px;}</style></defs><path class="cls-1" d="M47.13,30c-1,0-1.45.37-1.59.87-1.29,4.8-13.1,7.7-19.6,7.7L29.86,45a1.1,1.1,0,0,0,.5.43C42.3,50.78,40,79.08,40,79.08H59.7s-2.31-28.79,10-33.75c0,0,1.92-3.15,3.13-5.16A1.11,1.11,0,0,0,72,38.49C64.85,38,54.07,34.87,54.07,30Z"/><path class="cls-1" d="M58.88,35.31l-9.12,10.1-8.85-9.8c-3.55-3.94-.13-14.3-.13-14.3,4.6-8,13.42-8,18,0C58.8,21.31,62.27,31.55,58.88,35.31Z"/><path class="cls-1" d="M25.94,92s1.52-14.56,23.77-14.56S72,92,72,92Z"/></svg>