<svg xmlns="http://www.w3.org/2000/svg" viewBox="0 0 100 100"><defs><style>.cls-1{fill:#fff;stroke:#000;stroke-miterlimit:10;stroke-width:2px;}</style></defs><g id="Queen"><path class="cls-1" d="M64.43,80.38H36.33a1,1,0,0,1-.64-1.75c5.66-4.9,6.39-9.15,5.94-15.11a1,1,0,0,1,1-1.07H58a1,1,0,0,1,1,1.1c-.71,6.29-.19,9.47,6.14,15.09A1,1,0,0,1,64.43,80.38Z"/><polygon class="cls-1" points="41.56 57.82 15.13 52.06 9.37 25.63 41.56 57.82"/><polygon class="cls-1" points="48.05 53.18 22.72 43.7 20.78 16.72 48.05 53.18"/><polygon class="cls-1" points="56.02 49.51 35.38 39.49 35.91 15.3 56.02 49.51"/><polygon class="cls-1" points="58.44 57.82 84.86 52.06 90.63 25.63 58.44 57.82"/><polygon class="cls-1" points="51.95 53.18 77.28 43.7 79.22 16.72 51.95 53.18"/><polygon class="cls-1" points="43.98 49.51 64.62 39.49 64.09 15.3 43.98 49.51"/><polygon class="cls-1" points="50.41 65.67 21.52 57.93 50.41 32.41 79.31 57.95 50.41 65.67"/><polygon class="cls-1" points="50.41 52.63 43.56 35.33 50.41 28.47 57.27 35.33 50.41 52.63"/><path class="cls-1" d="M22.13,92S24,76.33,50.92,76.33c22.47,0,26.21,10.9,26.83,14.52a1,1,0,0,1-1,1.15Z"/></g></svg>