<svg xmlns="http://www.w3.org/2000/svg" viewBox="0 0 100 100"><defs><style>.cls-1{stroke:#fff;stroke-miterlimit:10;stroke-width:2px;}</style></defs><g id="Queen"><path class="cls-1" d="M67.14,78.38H33.48c8.08-6,8.73-10.68,8.06-17.93H59.07C58.11,68.14,58.44,71.27,67.14,78.38Z"/><polygon class="cls-1" points="41.56 55.82 15.13 50.06 9.37 23.63 41.56 55.82"/><polygon class="cls-1" points="48.05 51.18 22.72 41.7 20.78 14.72 48.05 51.18"/><polygon class="cls-1" points="56.02 47.51 35.38 37.49 35.91 13.3 56.02 47.51"/><polygon class="cls-1" points="58.44 55.82 84.86 50.06 90.63 23.63 58.44 55.82"/><polygon class="cls-1" points="51.95 51.18 77.28 41.7 79.22 14.72 51.95 51.18"/><polygon class="cls-1" points="43.98 47.51 64.62 37.49 64.09 13.3 43.98 47.51"/><polygon class="cls-1" points="50.41 63.67 21.52 55.93 50.41 30.41 79.31 55.95 50.41 63.67"/><polygon class="cls-1" points="50.41 50.63 43.56 33.33 50.41 26.47 57.27 33.33 50.41 50.63"/><path class="cls-1" d="M22.13,90S24,74.33,50.92,74.33,77.87,90,77.87,90Z"/></g></svg>