<svg xmlns="http://www.w3.org/2000/svg" viewBox="0 0 100 100"><defs><style>.cls-1{stroke:#fff;stroke-miterlimit:10;stroke-width:2px;}</style></defs><g id="Rook"><path class="cls-1" d="M61.29,41.92H37.41v8.42c0,6.68-2.94,26.58-8,32.93H69c-4.85-6.38-7.7-26.25-7.75-32.93Z"/><polygon class="cls-1" points="63.62 13.3 63.62 21.37 54.1 21.23 54.1 13.3 49.25 13.3 49.01 13.3 44.16 13.3 44.16 21.23 34.64 21.37 34.64 13.3 25.13 14.69 27.58 34.93 70.91 34.93 73.13 14.69 63.62 13.3"/><path class="cls-1" d="M27.56,33.22V36h0A34.1,34.1,0,0,0,41.22,50.76l7.91,4.59L57,50.82A35.68,35.68,0,0,0,70.92,36h0V33.22Z"/><path class="cls-1" d="M21.13,90S23,76.91,49.92,76.91,76.87,90,76.87,90Z"/></g></svg>