<svg xmlns="http://www.w3.org/2000/svg" viewBox="0 0 100 100"><defs><style>.cls-1{fill:#fff;stroke:#0a0a0a;stroke-miterlimit:10;stroke-width:2px;}</style></defs><g id="Rook"><path class="cls-1" d="M61.18,45H37.3v8.42c0,6.68-2.95,20.58-8,29.14h39.6c-4.86-8.58-7.7-22.45-7.75-29.14Z"/><polygon class="cls-1" points="63.62 15.3 63.62 23.37 54.1 23.23 54.1 15.3 49.25 15.3 49.01 15.3 44.16 15.3 44.16 23.23 34.64 23.37 34.64 15.3 25.13 16.69 27.58 36.93 70.91 36.93 73.13 16.69 63.62 15.3"/><polygon class="cls-1" points="27.56 35.22 27.56 38.01 32.12 47.49 49.13 57.35 66.14 47.49 70.92 38.01 70.91 35.22 27.56 35.22"/><path class="cls-1" d="M21.13,92S23,78.91,49.92,78.91c21.87,0,26,8.62,26.77,11.87a1,1,0,0,1-1,1.22Z"/></g></svg>