<svg xmlns="http://www.w3.org/2000/svg" viewBox="0 0 100 100"><defs><style>.cls-1{fill:#232b3a;}.cls-2{fill:#ff0;}.cls-3{fill:#a0971f;}.cls-4{fill:#fff;}.cls-5{fill:#c6bc00;}.cls-6{fill:#c9c017;}.cls-7{fill:red;}</style></defs><g id="back"><rect class="cls-1" width="100" height="100"/></g><g id="pawn_body" data-name="pawn body"><path class="cls-2" d="M79.71,72.15C76.22,69.3,58.86,57.47,57.76,36.92H42.27c-1.11,20.55-18.47,32.38-22,35.23S16,77.31,15.37,85.51a184.69,184.69,0,0,0,69.28,0C84.05,77.31,83.2,75,79.71,72.15Z"/><path class="cls-2" d="M66.31,34.09C62.71,31.42,50,27.77,50,27.77s-9.49,2-16.55,6.32a3.62,3.62,0,0,0-.17,3.13s3.3,2.56,16.72,2.56,16.72-2.56,16.72-2.56A3,3,0,0,0,66.31,34.09Z"/><path class="cls-3" d="M42,39.41h0s11.31.7,15.93,0c0,0,.81,10.71,9.77,21.64,5.19,6.13,9,8.39,12,11.1h0c-11.17-7.91-24.36-12.5-28-29.76C49,42.05,44.24,41.18,42,39.41Z"/><circle class="cls-2" cx="50.01" cy="18.96" r="12.91"/><path class="cls-3" d="M62.86,17.69c-2.35,8.83-7.49,13.11-20,12.12h0a12.44,12.44,0,0,0,8.73,2.06c1.56,0,8.62,4,8.62,4a2.93,2.93,0,0,1,0,3.29s5-.64,6.55-1.92a3.07,3.07,0,0,0-.1-3.13c-1.32-1.12-6-2.92-9.81-4.16A12.78,12.78,0,0,0,62.86,17.69Z"/><ellipse class="cls-4" cx="45.08" cy="10.19" rx="2.98" ry="1.65" transform="translate(0.95 23.91) rotate(-30)"/><path class="cls-4" d="M43,36.32a19,19,0,0,1-4.55-.09,4.2,4.2,0,0,1-2.89-1.47,12.68,12.68,0,0,0,3.4,1C41.21,36.12,43,36.32,43,36.32Z"/><path class="cls-5" d="M75.7,69.47l4,2.68c-17.89,5.43-50.48,2.85-55.34.44C34.32,75.8,63.32,73.54,75.7,69.47Z"/><path class="cls-6" d="M84.65,85.51s-5.7,1-9.94,1.61c4.21-2.55,6.44-7.5,4.86-15.07C83.61,75.29,84.07,78,84.65,85.51Z"/></g><g id="Christmas_" data-name="Christmas!"><path class="cls-7" d="M57.61,9.11l2.92-3.23c2.4,1.43,3.69,4.45,3.53,8.34C62.6,9.31,59.64,11.14,57.61,9.11Z"/><path class="cls-7" d="M39.18,11.93s.38-2.82,4.26-4.14C44.61,6.61,46.27,6.36,48.15,6c4.81-.8,12-.08,13.28,5.54.32,1.38.82,2.59,1,4C62.94,18.55,38.83,15.22,39.18,11.93Z"/><path class="cls-7" d="M59.49,10.14c-.91,2.18-13.58-1-12.66-3.15.73-1.43,3-2.85,5.38-3.17,3.11-.41,7.13.72,8.21,1.79S59.19,8.34,59.49,10.14Z"/><path class="cls-4" d="M62.93,20C62.55,22.13,38,17.5,37.61,15.36c-.21-1.29-.18-2.8,1.57-3.43-.34,1.91,23,5.69,23.3,3.78C63.9,16.58,63.9,18.2,62.93,20Z"/><circle class="cls-4" cx="64" cy="14.05" r="1.17"/></g></svg>