<svg xmlns="http://www.w3.org/2000/svg" viewBox="0 0 100 100"><defs><style>.cls-1{fill:#232b3a;}.cls-2{fill:#ff0;}.cls-3{fill:#a0971f;}.cls-4{fill:#fff;}.cls-5{fill:#c6bc00;}.cls-6{fill:#c9c017;}.cls-7{fill:#1c1c1c;}.cls-8{fill:#141414;}</style></defs><g id="back"><rect class="cls-1" width="100" height="100"/></g><g id="pawn_body" data-name="pawn body"><path class="cls-2" d="M79.71,72.15C76.22,69.3,58.86,57.47,57.76,36.92H42.27c-1.11,20.55-18.47,32.38-22,35.23S16,77.31,15.37,85.51a184.69,184.69,0,0,0,69.28,0C84.05,77.31,83.2,75,79.71,72.15Z"/><path class="cls-2" d="M66.31,34.09C62.71,31.42,50,27.77,50,27.77s-9.49,2-16.55,6.32a3.62,3.62,0,0,0-.17,3.13s3.3,2.56,16.72,2.56,16.72-2.56,16.72-2.56A3,3,0,0,0,66.31,34.09Z"/><path class="cls-3" d="M42,39.41h0s11.31.7,15.93,0c0,0,.81,10.71,9.77,21.64,5.19,6.13,9,8.39,12,11.1h0c-11.17-7.91-24.36-12.5-28-29.76C49,42.05,44.24,41.18,42,39.41Z"/><circle class="cls-2" cx="50.01" cy="18.96" r="12.91"/><path class="cls-3" d="M62.86,17.69c-2.35,8.83-7.49,13.11-20,12.12h0a12.44,12.44,0,0,0,8.73,2.06c1.56,0,8.62,4,8.62,4a2.93,2.93,0,0,1,0,3.29s5-.64,6.55-1.92a3.07,3.07,0,0,0-.1-3.13c-1.32-1.12-6-2.92-9.81-4.16A12.78,12.78,0,0,0,62.86,17.69Z"/><ellipse class="cls-4" cx="45.08" cy="10.19" rx="2.98" ry="1.65" transform="translate(0.95 23.91) rotate(-30)"/><path class="cls-4" d="M43,36.32a19,19,0,0,1-4.55-.09,4.2,4.2,0,0,1-2.89-1.47,12.68,12.68,0,0,0,3.4,1C41.21,36.12,43,36.32,43,36.32Z"/><path class="cls-5" d="M75.7,69.47l4,2.68c-17.89,5.43-50.48,2.85-55.34.44C34.32,75.8,63.32,73.54,75.7,69.47Z"/><path class="cls-6" d="M84.65,85.51s-5.7,1-9.94,1.61c4.21-2.55,6.44-7.5,4.86-15.07C83.61,75.29,84.07,78,84.65,85.51Z"/><circle class="cls-7" cx="50" cy="43.94" r="1.85"/><path d="M38.6,21.85a1.78,1.78,0,0,0,1.63,1.07A2.81,2.81,0,0,0,43,21.67c.38-.55.73-1.11,1.09-1.67a5.07,5.07,0,0,1,2.72-2.14,3.08,3.08,0,0,1,3,.5l.29.22a2.48,2.48,0,0,0,.26-.19,3.14,3.14,0,0,1,3.16-.47A5,5,0,0,1,56,20c.37.58.73,1.16,1.13,1.72a2.77,2.77,0,0,0,2.76,1.17,1.56,1.56,0,0,0,1.48-1.14,3.69,3.69,0,0,1-1.3,3.17,4,4,0,0,1-3.74.63A12,12,0,0,1,52,23.21c-.39-.31-.76-.64-1.13-1-.72-.65-1-.66-1.72,0A16.94,16.94,0,0,1,45.23,25a6,6,0,0,1-3.48.72,3.56,3.56,0,0,1-3.1-3.23C38.63,22.27,38.61,22.06,38.6,21.85Z"/><path d="M47.73,27.11a16.65,16.65,0,0,1,5.32,0,8.41,8.41,0,0,1-2.6,2.61A6.3,6.3,0,0,1,47.73,27.11Z"/><polygon class="cls-8" points="49.51 45.8 47.45 55.09 50.39 58.83 53.05 55.09 50.55 45.79 49.51 45.8"/></g></svg>