<svg xmlns="http://www.w3.org/2000/svg" viewBox="0 0 100 100"><defs><style>.cls-1,.cls-2{fill:#565656;}.cls-1,.cls-3{stroke:#0f0f0f;stroke-miterlimit:10;stroke-width:3px;}.cls-3{fill:none;}</style></defs><g id="King"><path class="cls-1" d="M27.16,84.67c0,9.39,45.68,9.39,45.68,0l-2.85-6L56.5,69.86H43.82L30,78.63Z"/><circle class="cls-1" cx="50" cy="37" r="11.56"/><path class="cls-1" d="M64.29,75.93c0,6-28.58,6-28.58,0,5.95-4.56,5.15-10.72,4.72-18H59.57C59,65.65,58.1,71.88,64.29,75.93Z"/><path class="cls-1" d="M37.33,27c-5.2-1.75-22.7,6.45-22.7,22.34,0,0,14.9,19.85,35.37,19.85v-29C47.69,34.54,42.53,28.77,37.33,27Z"/><path class="cls-1" d="M62.67,27c5.2-1.75,22.7,6.45,22.7,22.34,0,0-14.9,19.85-35.37,19.85v-29C52.31,34.54,57.47,28.77,62.67,27Z"/><path class="cls-1" d="M52.83,13.05l-1-4.76h-3.7l-1,4.76-4.67,1v3.76l4.67,1,1,9.52c0,1.38,3.7,1.38,3.7,0l1-9.52,4.67-1V14.05Z"/><path class="cls-2" d="M49.89,37.62,33,53.62l-21-11,5.94,21s15.17,11,32.06,11,32.06-11,32.06-11l5.94-21-21,11Z"/><path class="cls-3" d="M49.89,37.62,33,53.62l-21-11,5.94,21s15.17,11,32.06,11,32.06-11,32.06-11l5.94-21-21,11Z"/><polygon class="cls-1" points="50 66.38 44.8 59.59 50 49.48 55.2 59.59 50 66.38"/></g></svg>