<svg xmlns="http://www.w3.org/2000/svg" viewBox="0 0 100 100"><defs><style>.cls-1{fill:#565656;stroke:#0f0f0f;stroke-miterlimit:10;stroke-width:3px;}</style></defs><g id="Queen"><path class="cls-1" d="M76,22.17c0-4.1-5.86-11.83-11-16.73,0,17.36-4.31,28.79-15,38.38,11.13-.3,18-3.58,22-8.86S76,26.27,76,22.17Z"/><path class="cls-1" d="M82,15.82C73.88,31,63.19,40.2,50,43.82c4.76,3.2,21.28,3.33,26,1s9-5.89,9-16A30.16,30.16,0,0,0,82,15.82Z"/><path class="cls-1" d="M24,22.17c0-4.1,5.86-11.83,11-16.73,0,17.36,4.31,28.79,15,38.38-11.13-.3-18-3.58-22-8.86S24,26.27,24,22.17Z"/><path class="cls-1" d="M18,15.82c8.1,15.17,18.79,24.38,32,28-4.76,3.2-21.28,3.33-26,1s-9-5.89-9-16A30.16,30.16,0,0,1,18,15.82Z"/><path class="cls-1" d="M23.09,83.4c0,11.47,53.78,11.47,53.78,0L73.51,76,57.64,65.32H42.7L26.45,76Z"/><path class="cls-1" d="M50,77.48c8.48,0,17-1.71,17-5.16-8.12-6-8.77-10.72-8.1-18H41.08c.67,7.28,0,12-8.1,18C33,75.77,41.5,77.49,50,77.48Z"/><path class="cls-1" d="M50,30.82c-15,16-26,16-38,2,0,21.5,23.35,32,38,32s38-10.5,38-32C76,46.82,65,46.82,50,30.82Z"/><polygon class="cls-1" points="49.98 18.27 41.98 36.82 49.98 46.82 57.98 36.82 49.98 18.27"/></g></svg>