<svg xmlns="http://www.w3.org/2000/svg" viewBox="0 0 100 100"><defs><style>.cls-1{fill:#565656;stroke:#0f0f0f;stroke-miterlimit:10;stroke-width:3px;}</style></defs><g id="Rook"><path class="cls-1" d="M14,83.31c0,11.59,72,11.59,72,0l-4.5-7.46L60.25,65h-20L18.5,75.85Z"/><path class="cls-1" d="M66.57,37.07c0-7.62-32.9-7.62-32.9,0,0,0-3.16,30.74-8.67,34.55,0,9.41,50,9.41,50,0C69.67,67.79,66.57,37.07,66.57,37.07Z"/><polygon class="cls-1" points="65 9 65 19 55 19 55 9 45 9 45 19 35 19 35 9 25 9 25 19 25 39 50 49 75 39 75 19 75 9 65 9"/></g></svg>