<svg xmlns="http://www.w3.org/2000/svg" viewBox="0 0 100 100"><defs><style>.cls-1,.cls-2{fill:#f4f4f4;}.cls-1,.cls-3{stroke:#0f0f0f;stroke-miterlimit:10;stroke-width:3px;}.cls-3{fill:none;}</style></defs><g id="King"><path class="cls-1" d="M30.58,86.29c0,9.38,45.69,9.38,45.69,0l-2.86-6.05L59.93,71.47H47.24l-13.8,8.77Z"/><circle class="cls-1" cx="53.42" cy="38.62" r="11.56"/><path class="cls-1" d="M67.72,77.55c0,6-28.59,6-28.59,0,6-4.56,5.16-10.72,4.73-18H63C62.37,67.27,61.53,73.49,67.72,77.55Z"/><path class="cls-1" d="M40.75,28.64c-5.2-1.75-22.7,6.45-22.7,22.34,0,0,14.9,19.85,35.37,19.85,0,0,0-29,0-29C51.11,36.16,46,30.39,40.75,28.64Z"/><path class="cls-1" d="M66.1,28.64C71.3,26.89,88.8,35.09,88.8,51c0,0-14.91,19.85-35.37,19.85,0,0,0-29,0-29C55.74,36.16,60.89,30.39,66.1,28.64Z"/><path class="cls-1" d="M56.25,14.67l-1-4.76H51.58l-1,4.76-4.68,1v3.76l4.68,1,1,9.52c0,1.38,3.69,1.38,3.69,0l1-9.52,4.67-1V15.67Z"/><path class="cls-2" d="M53.31,39.23l-16.89,16-21-11,5.94,21s15.17,11,32.06,11,32.07-11,32.07-11l5.93-21-21,11Z"/><path class="cls-3" d="M53.31,39.23l-16.89,16-21-11,5.94,21s15.17,11,32.06,11,32.07-11,32.07-11l5.93-21-21,11Z"/><polygon class="cls-1" points="53.42 68 48.22 61.21 53.42 51.09 58.63 61.21 53.42 68"/></g></svg>