<svg xmlns="http://www.w3.org/2000/svg" viewBox="0 0 100 100"><defs><style>.cls-1{fill:#f4f4f4;stroke:#0f0f0f;stroke-miterlimit:10;stroke-width:3px;}</style></defs><g id="Rook"><path class="cls-1" d="M14,84.8c0,11.58,72,11.58,72,0l-4.5-7.46L60.25,66.52h-20L18.5,77.34Z"/><path class="cls-1" d="M66.57,38.56c0-7.63-32.9-7.63-32.9,0,0,0-3.16,30.73-8.67,34.55,0,9.4,50,9.4,50,0C69.67,69.28,66.57,38.56,66.57,38.56Z"/><polygon class="cls-1" points="65 9.34 65 19.34 55 19.34 55 9.34 45 9 45 19.34 35 19.34 35 9.34 25 9.34 25 19.34 25 39.34 50 49.34 75 39.34 75 19.34 75 9.34 65 9.34"/></g></svg>