<svg id="Pawn" xmlns="http://www.w3.org/2000/svg" viewBox="0 0 100 100"><defs><style>.cls-1{fill:#f4f4f4;stroke:#0f0f0f;stroke-miterlimit:10;stroke-width:3px;}</style></defs><path class="cls-1" d="M72,80s-14.15-5.85-18-9.94H46C42.15,74.15,28,80,28,80l-1,4c0,4.3,15.07,7,23,7s23-2.7,23-7Z"/><path class="cls-1" d="M56.6,55.13l-6.6.09-6.6-.09c.91,17.68-.08,17.23-5.73,20.75,1,2.49,5.31,4.65,12.33,4.65s11.29-2.16,12.33-4.65C56.68,72.36,55.7,72.81,56.6,55.13Z"/><path class="cls-1" d="M41.59,55.13s4.17,3.43,8.41,3.42,8.41-3.42,8.41-3.42a23.82,23.82,0,0,1,2.7-10.93H38.89A23.82,23.82,0,0,1,41.59,55.13Z"/><polygon class="cls-1" points="66.44 42.69 62.86 37.67 55.26 37.67 50 35.45 44.74 37.67 37.14 37.67 33.56 42.69 40.1 44.1 50 48.11 59.9 44.1 66.44 42.69"/><path class="cls-1" d="M57.77,24C57,19.55,53.54,17.67,50,17.67S43,19.55,42.23,24s.29,7.29,1.55,9.07A71.34,71.34,0,0,0,50,39.44a71.34,71.34,0,0,0,6.22-6.39C57.48,31.27,58.55,28.42,57.77,24Z"/></svg>