<svg xmlns="http://www.w3.org/2000/svg" viewBox="0 0 100 100"><defs><style>.cls-1{fill:#515151;}.cls-2{fill:#121212;}</style></defs><g id="Pawn"><path class="cls-1" d="M50,92.5c-10.27,0-27.5-1-27.5-8v-.82L40.63,58.84,34.5,42.19,50,47.58l16-5.5L59.59,58.86,77.5,83.66v.81C77.5,91.46,60.27,92.5,50,92.5Z"/><path class="cls-2" d="M61.74,46.18l-5,13.06L75,84.47C75,88.16,62.5,90,50,90s-25-1.84-25-5.53L43.44,59.24l-4.77-13L50,50.23l11.74-4M70.21,38l-10.1,3.48L50,44.93l-9.69-3.36-10-3.48L34,48l3.84,10.43L21,81.52l-1,1.32v1.63c0,6.72,8.92,8.48,11.85,9A98.19,98.19,0,0,0,50,95a98.19,98.19,0,0,0,18.15-1.48C71.08,93,80,91.19,80,84.47V82.85l-1-1.31L62.41,58.49l4-10.53,3.8-10Z"/><polygon class="cls-1" points="25.27 43.32 31.29 34.9 50 33.08 50.27 33.1 68.92 34.9 74.95 43.33 49.99 52.91 25.27 43.32"/><path class="cls-2" d="M50,35.59l17.52,1.69L71,42.16,50,50.23,29.18,42.16l3.49-4.88L50,35.59h0m0-5-.49.05h0L32.18,32.3l-2.26.22L28.6,34.37l-3.49,4.88-3.75,5.24,6,2.33,20.82,8.07,1.8.69,1.8-.69,21-8.06,6-2.32-3.76-5.26-3.49-4.88L70.3,32.52,68,32.3,50.51,30.61,50,30.56Z"/><path class="cls-1" d="M41.58,34.26l-.27-.67a20.87,20.87,0,0,1-1.06-10.21C41.19,18,44.84,14.8,50,14.8s8.81,3.21,9.75,8.58a20.87,20.87,0,0,1-1.06,10.21l-.27.67L50,40.39Z"/><path class="cls-2" d="M50,17.3c3.63,0,6.49,2,7.29,6.52a18.23,18.23,0,0,1-.92,8.84L50,37.3l-6.37-4.64a18.23,18.23,0,0,1-.92-8.84c.8-4.54,3.66-6.52,7.29-6.52m0-5c-6.38,0-11.06,4.08-12.21,10.65A23,23,0,0,0,39,34.51l.53,1.35,1.17.85,6.37,4.63L50,43.48l2.94-2.14,6.37-4.63,1.17-.85L61,34.51A23,23,0,0,0,62.21,23C61.06,16.38,56.38,12.3,50,12.3Z"/></g></svg>