<svg xmlns="http://www.w3.org/2000/svg" viewBox="0 0 100 100"><defs><style>.cls-1{fill:#eaeaea;}.cls-2{fill:#121212;}.cls-3{fill:none;stroke:#121212;stroke-miterlimit:10;stroke-width:5px;}</style></defs><g id="Knight"><path class="cls-1" d="M50,92.5c-30,0-30-5.23-30-7v-.3l2.22-9c.61-5.89,15.36-7.15,27.78-7.15s27.17,1.26,27.78,7.15l2.22,9v.3C80,87.27,80,92.5,50,92.5Z"/><path class="cls-2" d="M50,71.64c12.65,0,25.3,1.68,25.3,5l2.2,8.87c0,3-13.75,4.45-27.5,4.45s-27.5-1.48-27.5-4.45l2.2-8.87c0-3.36,12.65-5,25.3-5m0-5A110.56,110.56,0,0,0,31.73,68c-3.15.56-11.32,2-12,7.91l-2.09,8.46-.15.59v.61c0,6.43,8.7,7.69,12.88,8.29A145.64,145.64,0,0,0,50,95a145.64,145.64,0,0,0,19.62-1.16C73.8,93.24,82.5,92,82.5,85.55v-.61l-.15-.59-2.09-8.46c-.67-5.91-8.84-7.35-12-7.91A110.56,110.56,0,0,0,50,66.64Z"/><path class="cls-1" d="M51.07,81.17c-5.92,0-19.7-.72-19.7-7.4,0-8,4.13-12,7.77-15.65,3.24-3.22,6.09-6,6.5-11.53l-20.85-.12L21.36,33.14l25.17-12L48.14,12l2.56.59c1,.23,24.19,5.74,27,23,2.52,15.31-5.67,35.67-7,38.85C69.92,80.49,56.81,81.17,51.07,81.17Z"/><path class="cls-2" d="M50.14,15s22.53,5.16,25.12,20.93-7,37.84-7,37.84c0,3.27-8.59,4.9-17.19,4.9s-17.2-1.63-17.2-4.9c0-14.34,15-13.83,14.3-29.66L26.73,44,24.3,34.51,48.77,22.86,50.14,15M46.13,9l-.91,5.19-.93,5.32L22.15,30l-3.72,1.77,1,4,2.44,9.47,1,3.73,3.85,0,16,.09c-.9,2.93-2.86,4.87-5.28,7.27-3.79,3.76-8.51,8.43-8.51,17.43,0,2.83,1.59,6.61,9.15,8.52a55.5,55.5,0,0,0,13,1.38,55.5,55.5,0,0,0,13.05-1.38c6.46-1.64,8.56-4.64,9-7.25,1.7-4.11,9.6-24.37,7-39.93-3.1-18.85-27.88-24.74-28.93-25L46.13,9Z"/><path class="cls-3" d="M58.8,28.39c8.79,5.34,9.56,13,1.45,40.86"/></g></svg>