<svg xmlns="http://www.w3.org/2000/svg" viewBox="0 0 100 100"><defs><style>.cls-1{fill:#eaeaea;}.cls-2{fill:#121212;}</style></defs><g id="Rook"><path class="cls-1" d="M50,92.5c-27.5,0-27.5-5.22-27.5-6.93v-.28l2-8.9C25,70.47,38.58,69.21,50,69.21s25,1.26,25.49,7.18l2,8.9v.28C77.5,87.28,77.5,92.5,50,92.5Z"/><path class="cls-2" d="M50,71.71c11.5,0,23,1.67,23,5l2,8.84c0,3-12.5,4.43-25,4.43s-25-1.48-25-4.43l2-8.84c0-3.35,11.5-5,23-5m0-5a92.23,92.23,0,0,0-16.76,1.35c-2.68.52-10.61,2-11.2,8l-1.92,8.45L20,85v.56c0,6.36,8.43,7.69,12,8.26A122.33,122.33,0,0,0,50,95a122.33,122.33,0,0,0,18-1.17c3.6-.57,12-1.9,12-8.26V85l-.12-.55L78,76c-.59-5.9-8.52-7.43-11.2-8A92.23,92.23,0,0,0,50,66.71Z"/><path class="cls-1" d="M50,81.21c-6.56,0-17.55-.86-17.55-6.64v-.18L37.84,37.5H62.16l5.37,36.89v.18C67.53,80.35,56.56,81.21,50,81.21Z"/><path class="cls-2" d="M60,40l5,34.57c0,2.76-7.5,4.14-15,4.14S35,77.33,35,74.57L40,40H60m4.33-5H35.67l-.62,4.28L30,73.85l-.05.36v.36c0,7.56,10.9,9.14,20.05,9.14a50,50,0,0,0,11.51-1.18c7-1.72,8.5-5.28,8.5-8v-.36l0-.36L65,39.28,64.33,35Z"/><polygon class="cls-1" points="25.69 42.75 22.2 12.5 40.5 12.5 40.5 23.5 40.5 12.5 59.5 12.5 59.5 23.5 59.5 12.5 77.7 12.5 75.37 42.75 49.98 52.69 25.69 42.75"/><path class="cls-2" d="M75,15,73,41,50,50,28,41,25,15H38V26h5V15H57V26h5V15H75m5.4-5h-61L20,15.57l3,26,.34,2.94,2.74,1.11,22,9,1.85.76,1.86-.73,23-9,2.92-1.14L78,41.38l2-26L80.4,10Z"/></g></svg>