<svg xmlns="http://www.w3.org/2000/svg" viewBox="0 0 100 100"><defs><style>.cls-1{fill:#515151;}.cls-2{fill:#121212;}</style></defs><g id="Queen"><path class="cls-1" d="M50,92.5c-28.54,0-28.54-4.89-28.54-6.73v-.31L23.56,77C24,72.37,32.91,70,50,70S76,72.37,76.44,77l2.1,8.51v.31C78.54,87.61,78.54,92.5,50,92.5Z"/><path class="cls-2" d="M50,72.54c12,0,24,1.6,24,4.79l2.09,8.44c0,2.82-13,4.23-26,4.23s-26-1.41-26-4.23L26,77.33c0-3.19,12-4.79,24-4.79m0-5a104.62,104.62,0,0,0-17.35,1.28c-3,.54-10.92,1.94-11.57,7.73l-2,8-.15.59v.61c0,6.33,8.4,7.54,12.43,8.12A136.69,136.69,0,0,0,50,95a136.69,136.69,0,0,0,18.62-1.11c4-.58,12.43-1.79,12.43-8.12v-.61l-.15-.59-2-8c-.65-5.79-8.53-7.19-11.57-7.73A104.62,104.62,0,0,0,50,67.54Z"/><path class="cls-1" d="M50,81.73c-3.87,0-16.49-.51-16.49-7.06v-.62l8.71-16.44H57.78l8.71,16.44v.62C66.49,81.22,53.87,81.73,50,81.73Z"/><path class="cls-2" d="M56.27,60.11,64,74.67c0,3-7,4.56-14,4.56s-14-1.52-14-4.56l7.72-14.56H56.27m3-5H40.72l-1.41,2.66L31.59,72.33,31,73.42v1.25c0,6.07,6.92,9.56,19,9.56a41.35,41.35,0,0,0,11-1.34c6.95-2,8-6,8-8.22V73.42l-.58-1.09L60.69,57.77l-1.41-2.66Z"/><path class="cls-1" d="M48.38,45.85C57.54,38.23,61.28,29.29,61.3,15V9.46l4.15,3.67c3.8,3.36,11,11.06,11,16.16,0,3.62,0,7.34-4.26,12.5C67.7,47.23,60.46,50,50,50.27l-7.19.18Z"/><path class="cls-2" d="M63.8,15c4.73,4.18,10.13,10.78,10.13,14.28s0,6.44-3.69,10.93-10,7.3-20.26,7.56c9.85-8.19,13.8-18,13.82-32.77m-5-11.09V15c0,13.47-3.5,21.85-12,28.93L35.72,53.13l14.39-.36c11.18-.29,19-3.35,24-9.39,4.81-5.85,4.81-10.22,4.82-14.07,0-7.38-10.61-17-11.82-18.06l-8.3-7.34Z"/><path class="cls-1" d="M63.47,52.49c-2.5,0-10.95-.19-14.81-2.6l-5-3.1,5.68-1.45c11.68-3,20.82-10.4,27.92-22.73l2.23-3.87,2.13,3.93A26.54,26.54,0,0,1,84.72,35c0,10.17-5.21,13.86-9.75,15.93-3.14,1.44-9.09,1.6-11.5,1.6Z"/><path class="cls-2" d="M79.45,23.86A24.14,24.14,0,0,1,82.22,35c0,8.63-3.94,11.67-8.29,13.66C72,49.52,67.84,50,63.47,50,58.1,50,52.4,49.28,50,47.77c12.17-3.1,22-11,29.47-23.91m.14-10.24-4.47,7.74C68.38,33.07,59.75,40.12,48.75,42.92L37.4,45.81,47.33,52c4.31,2.69,12.72,3,16.14,3,3.2,0,9.09-.24,12.54-1.82C80.82,51,87.22,46.68,87.22,35a29.14,29.14,0,0,0-3.37-13.48l-4.26-7.86Z"/><path class="cls-1" d="M49.92,50.27c-10.42-.27-17.66-3-22.13-8.48-4.25-5.16-4.25-8.88-4.26-12.48,0-5.12,7.18-12.82,11-16.18l4.15-3.67V15c0,14.29,3.75,23.23,12.91,30.85l5.53,4.6Z"/><path class="cls-2" d="M36.17,15c0,14.82,4,24.58,13.81,32.77-10.25-.26-16.55-3.06-20.26-7.56S26,32.78,26,29.28,31.43,19.18,36.17,15m5-11.09-8.3,7.34C31.64,12.33,21,21.93,21,29.29c0,3.87,0,8.24,4.83,14.09,5,6,12.81,9.1,24,9.39l14.38.36L53.18,43.92c-8.52-7.08-12-15.46-12-28.93l0-11.08Z"/><path class="cls-1" d="M36.49,52.49c-2.41,0-8.36-.16-11.5-1.6-4.54-2.07-9.75-5.77-9.75-15.93a26.54,26.54,0,0,1,3.07-12.29l2.13-3.93,2.23,3.87C29.78,34.94,38.91,42.37,50.6,45.34l5.67,1.45-5,3.1C47.45,52.3,39,52.49,36.49,52.49Z"/><path class="cls-2" d="M20.51,23.86C28,36.81,37.82,44.67,50,47.77,47.57,49.28,41.86,50,36.49,50,32.13,50,28,49.52,26,48.62c-4.35-2-8.29-5-8.29-13.66a24.14,24.14,0,0,1,2.77-11.1m-.13-10.24-4.27,7.86A29.14,29.14,0,0,0,12.74,35c0,11.72,6.4,16,11.21,18.21C27.41,54.75,33.29,55,36.49,55c3.42,0,11.84-.29,16.14-3l9.93-6.2L51.21,42.92c-11-2.8-19.62-9.85-26.37-21.56l-4.46-7.74Z"/><path class="cls-1" d="M50,68.2c-15.72,0-37.5-10.37-37.5-29.82V32l4.34,4.69c5,5.43,9.49,8,14.06,8,5,0,10.71-3.19,17.34-9.75L50,33.15l1.76,1.74c6.63,6.56,12.3,9.75,17.34,9.75,4.57,0,9-2.53,14.07-8L87.5,32v6.39C87.5,57.83,65.72,68.2,50,68.2Z"/><path class="cls-2" d="M50,36.67c7.14,7.06,13.29,10.47,19.1,10.47,5.43,0,10.56-3,15.9-8.76C85,56.73,63.49,65.7,50,65.7s-35-9-35-27.32c5.34,5.77,10.47,8.76,15.9,8.76,5.81,0,12-3.41,19.1-10.47M10,25.6V38.38C10,59.47,33.23,70.7,50,70.7S90,59.47,90,38.38V25.61L81.33,35c-4.52,4.88-8.41,7.16-12.23,7.16-4.35,0-9.44-3-15.58-9L50,29.64l-3.52,3.47c-6.14,6.08-11.24,9-15.58,9-3.83,0-7.71-2.28-12.23-7.16L10,25.6Z"/><polygon class="cls-1" points="39.68 42.2 50 20.02 60.32 42.2 50 54.16 39.68 42.2"/><path class="cls-2" d="M50,26l7.37,15.84L50,50.33l-7.37-8.54L50,26m0-11.86-4.53,9.75L38.1,39.68l-1.36,2.93,2.11,2.45,7.36,8.54L50,58l3.79-4.38,7.36-8.54,2.11-2.45L61.9,39.68,54.53,23.84,50,14.09Z"/></g></svg>