<svg xmlns="http://www.w3.org/2000/svg" viewBox="0 0 100 100"><defs><style>.cls-1{fill:#eaeaea;}.cls-2{fill:#121212;}</style></defs><g id="Bishop"><path class="cls-1" d="M50,92.5c-27.5,0-27.5-5.07-27.5-6.73v-.29l2-8.51C25.07,71.26,38.61,70,50,70S74.93,71.26,75.48,77l2,8.51v.29C77.5,87.43,77.5,92.5,50,92.5Z"/><path class="cls-2" d="M50,72.54c11.5,0,23,1.6,23,4.79l2,8.44C75,88.59,62.5,90,50,90s-25-1.41-25-4.23l2-8.44c0-3.19,11.5-4.79,23-4.79m0-5a97.23,97.23,0,0,0-16.72,1.28c-3,.55-10.63,2-11.24,7.77l-1.91,8-.13.56v.59c0,6.3,8.15,7.53,12.07,8.12A128.35,128.35,0,0,0,50,95a128.35,128.35,0,0,0,17.93-1.11C71.85,93.3,80,92.07,80,85.77v-.59l-.13-.56-1.91-8c-.61-5.8-8.28-7.22-11.24-7.77A97.23,97.23,0,0,0,50,67.54Z"/><path class="cls-1" d="M50,81.73c-3.74,0-15.93-.51-15.93-7.06v-.6l8.37-16.46H57.56l8.37,16.46v.6C65.93,81.22,53.74,81.73,50,81.73Z"/><path class="cls-2" d="M56,60.11l7.41,14.56c0,3-6.71,4.56-13.43,4.56s-13.43-1.52-13.43-4.56L44,60.11H56m3.07-5H40.91l-1.39,2.73L32.11,72.4l-.54,1.07v1.2c0,6.07,6.72,9.56,18.43,9.56a38.2,38.2,0,0,0,10.68-1.36c6.74-2,7.75-6,7.75-8.2v-1.2l-.54-1.07L60.48,57.84l-1.39-2.73Z"/><path class="cls-1" d="M34.4,66.19a22.79,22.79,0,0,1-6.66-9.69,22.11,22.11,0,0,1-1.27-7.38c0-15.94,21-35.16,21.85-36l2-1.82,10.4,13.46-2.47,1.43A58.74,58.74,0,0,0,41.92,41.55L62.14,56,35.57,67.2Z"/><path class="cls-2" d="M50,15l7,9.05A60.12,60.12,0,0,0,38.51,42.18L57.05,55.47,36,64.29a20.13,20.13,0,0,1-5.93-8.62A19.56,19.56,0,0,1,29,49.12C29,34.1,50,15,50,15m.65-7.34-4,3.64C44.32,13.41,24,32.37,24,49.12a24.73,24.73,0,0,0,1.41,8.21,25.35,25.35,0,0,0,7.39,10.76l2.34,2L38,68.9l21-8.82,8.25-3.47L60,51.4,45.44,41A57,57,0,0,1,59.51,28.38l4.91-2.88L61,21l-7-9.06L50.65,7.66Z"/><path class="cls-1" d="M50,71.93a24,24,0,0,1-15.6-5.74l-1.7-1.46L34,62.88C48.2,42,65.35,35,66.07,34.68L67.89,34,69,35.54c4.55,6.33,4.69,8.59,4.54,12,0,.47,0,1,0,1.55C73.53,61.7,63,71.93,50,71.93Z"/><path class="cls-2" d="M67,37c5,7,4,8.11,4,12.12,0,11.22-9.42,20.31-21,20.31a21.33,21.33,0,0,1-14-5.14C50,43.82,67,37,67,37m1.78-6.1-3.64,1.46c-.75.3-18.58,7.63-33.24,29.12l-2.52,3.69,3.39,2.92A26.43,26.43,0,0,0,50,74.43c14.35,0,26-11.35,26-25.31,0-.5,0-1,0-1.44.18-4.25-.26-7-5-13.6L68.78,30.9Z"/></g></svg>