<svg xmlns="http://www.w3.org/2000/svg" viewBox="0 0 100 100"><defs><style>.cls-1{fill:#eaeaea;}.cls-2{fill:#121212;}</style></defs><g id="Pawn"><path class="cls-1" d="M50,92.5c-24.23,0-27.5-3.72-27.5-7.36v-.82l18.14-25L34.52,42.48,50,47.94l16-5.57-6.37,17,17.92,25v.81C77.5,88.78,74.23,92.5,50,92.5Z"/><path class="cls-2" d="M61.74,46.49l-5,13.25L75,85.14C75,88.88,62.5,90,50,90s-25-1.12-25-4.86l18.44-25.4L38.67,46.6l11.33,4,11.74-4.1m8.42-8.24L60.09,41.77,50,45.3l-9.67-3.42-10-3.51L34,48.3,37.84,59,21,82.2,20,83.51v1.63c0,6.85,8.74,8.24,12,8.77A125.28,125.28,0,0,0,50,95a125.28,125.28,0,0,0,18-1.09c3.28-.53,12-1.92,12-8.77V83.53l-.94-1.31L62.39,59l4-10.75,3.74-10Z"/><polygon class="cls-1" points="37.75 48.92 25.38 43.46 31.28 35.07 50 33.23 50.27 33.25 68.94 35.07 74.84 43.46 62.65 48.82 50 53.24 37.75 48.92"/><path class="cls-2" d="M50,35.73l17.52,1.72L71,42.4l-9.3,4.09L50,50.59l-11.33-4-9.49-4.2,3.49-4.95L50,35.74h0m0-5-.49.05h0L32.17,32.47l-2.27.23-1.32,1.87-3.49,5-3.51,5L27.16,47l9.49,4.19.18.08.18.06,11.33,4,1.65.58,1.66-.58,11.74-4.1.18-.06.18-.08L73.05,47l5.6-2.46-3.52-5-3.49-5L70.32,32.7,68,32.47,50.52,30.76,50,30.71Z"/><path class="cls-1" d="M41.58,34.26l-.27-.67a20.87,20.87,0,0,1-1.06-10.21C41.19,18,44.84,14.8,50,14.8s8.81,3.21,9.75,8.58a20.87,20.87,0,0,1-1.06,10.21l-.27.67L50,40.39Z"/><path class="cls-2" d="M50,17.3c3.63,0,6.49,2,7.29,6.52a18.23,18.23,0,0,1-.92,8.84L50,37.3l-6.37-4.64a18.23,18.23,0,0,1-.92-8.84c.8-4.54,3.66-6.52,7.29-6.52m0-5c-6.38,0-11.06,4.08-12.21,10.65A23,23,0,0,0,39,34.51l.53,1.35,1.17.85,6.37,4.63L50,43.48l2.94-2.14,6.37-4.63,1.17-.85L61,34.51A23,23,0,0,0,62.21,23C61.06,16.38,56.38,12.3,50,12.3Z"/></g></svg>