<svg xmlns="http://www.w3.org/2000/svg" viewBox="0 0 100 100"><defs><style>.cls-1{fill:#565656;stroke:#0f0f0f;stroke-miterlimit:10;stroke-width:3px;}</style></defs><g id="Bishop"><path class="cls-1" d="M27.16,85c0,9.39,45.68,9.39,45.68,0l-2.85-6L56.5,70.15H43.82L30,78.92Z"/><path class="cls-1" d="M65.19,75.35c.11,7-30.26,7.07-30.38,0a35.23,35.23,0,0,0,8.38-17H56.81A29.76,29.76,0,0,0,65.19,75.35Z"/><path class="cls-1" d="M40,43.82c4.33-12.71,14.19-21.93,21.7-23.29C55.72,12.28,50,5.82,50,5.82s-25,23.51-25,42A25,25,0,0,0,33.39,66.5l25-10.87Z"/><path class="cls-1" d="M68.73,31.16c-7-2.16-20.84,7-35.34,35.34A25,25,0,0,0,75,47.82C75,43.31,72.32,37.26,68.73,31.16Z"/></g></svg>