<svg xmlns="http://www.w3.org/2000/svg" viewBox="0 0 100 100"><defs><style>.cls-1{fill:#f4f4f4;stroke:#0f0f0f;stroke-miterlimit:10;stroke-width:3px;}</style></defs><g id="Bishop"><path class="cls-1" d="M27.16,83.89c0,9.38,45.68,9.38,45.68,0l-2.85-6L56.5,69.07H43.82L30,77.84Z"/><path class="cls-1" d="M65.35,74.82c.11,7-30.27,7.07-30.39,0a35.08,35.08,0,0,0,8.38-17H57A29.68,29.68,0,0,0,65.35,74.82Z"/><path class="cls-1" d="M40,43.84c4.33-12.72,14.19-21.93,21.7-23.3C55.72,12.3,50,5.84,50,5.84s-25,23.51-25,42a25,25,0,0,0,8.39,18.68l25-10.87Z"/><path class="cls-1" d="M68.73,31.18c-7-2.16-20.84,7-35.34,35.34A25,25,0,0,0,75,47.84C75,43.33,72.32,37.28,68.73,31.18Z"/></g></svg>