<svg xmlns="http://www.w3.org/2000/svg" viewBox="0 0 100 100"><defs><style>.cls-1{fill:#f4f4f4;stroke:#0f0f0f;stroke-miterlimit:10;stroke-width:3px;}</style></defs><g id="Knight"><path class="cls-1" d="M23.26,83.73c0,9,53,9,53,0l-4.37-5.8L57.35,69.52H42.57l-16,8.41Z"/><path class="cls-1" d="M29.69,67.88c0-7.22,4.66-17.16,19.27-25.95l3-5L28.25,34l-2-9,25-10V7s9.61,2.61,16,7.44S73.75,27,73.53,35.93l.22,30.41h0C67.18,66.36,66,75,66,75c0,7.36-31.52,7.36-31.52,0l0-2.91C34.45,69.75,32,67.88,29.69,67.88Z"/></g></svg>