<svg xmlns="http://www.w3.org/2000/svg" viewBox="0 0 100 100"><defs><style>.cls-1{fill:#f4f4f4;stroke:#0f0f0f;stroke-miterlimit:10;stroke-width:3px;}</style></defs><g id="Queen"><path class="cls-1" d="M76,21.67c0-4.1-5.86-11.83-11-16.73,0,17.35-4.31,28.78-15,38.38,11.13-.31,18-3.58,22-8.86S76,25.77,76,21.67Z"/><path class="cls-1" d="M82,15.32c-8.1,15.16-18.79,24.37-32,28,4.76,3.2,21.28,3.33,26,1s9-5.89,9-16A30.09,30.09,0,0,0,82,15.32Z"/><path class="cls-1" d="M24,21.67c0-4.1,5.86-11.83,11-16.73,0,17.35,4.31,28.78,15,38.38C38.85,43,32,39.74,28,34.46S24,25.77,24,21.67Z"/><path class="cls-1" d="M18,15.32c8.1,15.16,18.79,24.37,32,28-4.76,3.2-21.28,3.33-26,1s-9-5.89-9-16A30.09,30.09,0,0,1,18,15.32Z"/><path class="cls-1" d="M23.09,84.74c0,11.46,53.78,11.46,53.78,0l-3.36-7.37L57.64,66.66H42.7L26.45,77.37Z"/><path class="cls-1" d="M50,78.58c8.48,0,17-1.71,17-5.16-8.12-6-8.77-10.72-8.1-18H41.08c.67,7.28,0,12-8.1,18C33,76.87,41.5,78.59,50,78.58Z"/><path class="cls-1" d="M50,30.32c-15,16-26,16-38,2,0,21.5,23.35,32,38,32s38-10.5,38-32C76,46.32,65,46.32,50,30.32Z"/><polygon class="cls-1" points="49.98 17.76 41.98 36.32 49.98 46.32 57.98 36.32 49.98 17.76"/></g></svg>